<svg width="30" height="40" viewBox="0 0 30 40" fill="none" xmlns="http://www.w3.org/2000/svg">
  <path fill-rule="evenodd" clipRule="evenodd"
    d="M25.0869 27.122L17.4562 34.7527C16.6513 35.5576 15.5601 35.9034 14.5099 35.7893C13.7201 35.7034 12.9528 35.358 12.3474 34.7527L4.71669 27.122C4.01181 26.4171 3.65912 25.4927 3.65864 24.5688C3.65815 23.6439 4.01083 22.719 4.71669 22.0132L12.3474 14.3824C13.1308 13.599 14.184 13.2507 15.2079 13.3371C16.0279 13.4063 16.8289 13.7546 17.4562 14.3824L25.0869 22.0132C25.7918 22.718 26.1445 23.642 26.145 24.5659C26.1455 25.4912 25.7928 26.4161 25.0869 27.122ZM29.3123 21.8961L29.3191 21.8932L29.2816 21.7917C29.2533 21.7176 29.2299 21.6434 29.1991 21.5702L24.5713 9.1122L21.786 13.1024L14.905 0C14.905 0 4.05571 16.1371 1.30351 20.2517L1.30937 20.2522C-0.712583 23.2732 -0.394046 27.3961 2.27376 30.0639L9.40547 37.1951C12.4411 40.2307 17.363 40.2307 20.3981 37.1951L27.5299 30.0639C29.7396 27.8537 30.3206 24.6498 29.3123 21.8961Z"
    fill="#F12C4C" />
  <path fill-rule="evenodd" clipRule="evenodd"
    d="M14.9019 17.1818C13.6623 17.1818 12.6575 18.1866 12.6575 19.4262C12.6575 20.6657 13.6623 21.6705 14.9019 21.6705C16.1414 21.6705 17.1463 20.6657 17.1463 19.4262C17.1463 18.1866 16.1414 17.1818 14.9019 17.1818Z"
    fill="#F12C4C" />
  <path fill-rule="evenodd" clipRule="evenodd"
    d="M14.9019 27.4645C13.6623 27.4645 12.6575 28.4694 12.6575 29.7089C12.6575 30.9484 13.6623 31.9533 14.9019 31.9533C16.1414 31.9533 17.1463 30.9484 17.1463 29.7089C17.1463 28.4694 16.1414 27.4645 14.9019 27.4645Z"
    fill="#F12C4C" />
  <path fill-rule="evenodd" clipRule="evenodd"
    d="M20.0433 22.323C18.8038 22.323 17.7989 23.3279 17.7989 24.5674C17.7989 25.8069 18.8038 26.8118 20.0433 26.8118C21.2828 26.8118 22.2877 25.8069 22.2877 24.5674C22.2877 23.3279 21.2828 22.323 20.0433 22.323Z"
    fill="#F12C4C" />
  <path fill-rule="evenodd" clipRule="evenodd"
    d="M7.51572 24.5674C7.51572 25.8069 8.52059 26.8118 9.76059 26.8118C11.0001 26.8118 12.005 25.8069 12.005 24.5674C12.005 23.3279 11.0001 22.323 9.76059 22.323C8.52059 22.323 7.51572 23.3279 7.51572 24.5674Z"
    fill="#F12C4C" />
</svg>
