<svg width="20" height="16" viewBox="0 0 20 16" fill="none" xmlns="http://www.w3.org/2000/svg"><g clip-path="url(#clip0_310:1614)"><path fill-rule="evenodd" clip-rule="evenodd" d="M12.9098 11.6999L8.50983 0.679922C8.46867 0.552431 8.40232 0.434509 8.31471 0.333157C8.2271 0.231805 8.12002 0.14909 7.99983 0.0899224C7.87947 0.0329628 7.74798 0.00341797 7.61483 0.00341797C7.48167 0.00341797 7.35018 0.0329628 7.22983 0.0899224L0.619826 2.88992C0.493193 2.94358 0.378991 3.02278 0.284356 3.12258C0.189721 3.22238 0.11669 3.34062 0.0698257 3.46992C-0.0297857 3.73762 -0.0297857 4.03222 0.0698257 4.29992L4.46983 15.2999C4.57246 15.5621 4.7734 15.7738 5.02983 15.8899C5.15209 15.9464 5.28515 15.9756 5.41983 15.9756C5.5545 15.9756 5.68757 15.9464 5.80983 15.8899L12.3698 13.0799C12.4946 13.0251 12.6069 12.9454 12.6997 12.8457C12.7926 12.746 12.8641 12.6283 12.9098 12.4999C13.0074 12.2422 13.0074 11.9577 12.9098 11.6999ZM9.06983 8.61992C8.93162 8.86983 8.73468 9.08235 8.496 9.23915C8.25732 9.39595 7.98407 9.49231 7.69983 9.51992L8.55983 10.2399L6.76983 10.9999L6.88983 9.85992C6.67818 10.0484 6.42277 10.181 6.14682 10.2456C5.87088 10.3102 5.58316 10.3048 5.30983 10.2299C3.30983 9.45992 4.59983 6.85992 5.59983 5.44992C7.27983 5.71992 9.84982 6.91992 9.06983 8.61992Z" fill="#8C9099"></path><path fill-rule="evenodd" clip-rule="evenodd" d="M12.64 5.7698L11 1.5998C11.07 1.45195 11.1686 1.3194 11.29 1.2098C11.4911 1.05154 11.7452 0.976385 12 0.999805L19.1 2.0798C19.2361 2.09929 19.3668 2.14665 19.4838 2.21892C19.6008 2.29118 19.7016 2.3868 19.78 2.4998C19.9514 2.729 20.0267 3.01597 19.99 3.2998C19.7 5.8898 18.99 12.4698 18.65 15.0598C18.6206 15.3369 18.4843 15.5917 18.27 15.7698C18.1671 15.8558 18.0467 15.9182 17.9171 15.9528C17.7876 15.9873 17.652 15.9931 17.52 15.9698L11.33 14.9998L13.9 13.8998C14.359 13.6907 14.718 13.3102 14.9 12.8398C15.0853 12.3535 15.0853 11.8161 14.9 11.3298L14.56 10.4698C15.4643 10.0656 16.2545 9.44374 16.86 8.6598C17.156 8.28955 17.3397 7.84222 17.3893 7.37079C17.439 6.89936 17.3524 6.42358 17.14 5.9998C16.8902 5.70621 16.546 5.50872 16.1665 5.44121C15.7869 5.37369 15.3957 5.44037 15.06 5.62981C14.7971 5.35867 14.4491 5.18593 14.0742 5.14043C13.6993 5.09493 13.3201 5.17943 13 5.37981C12.8533 5.4823 12.7304 5.61535 12.64 5.7698Z" fill="#414952"></path></g><defs><clipPath id="clip0_310:1614"><rect width="20" height="16" fill="white"></rect></clipPath></defs></svg>
