<svg width="20" height="15" viewBox="0 0 20 20" fill="none" xmlns="http://www.w3.org/2000/svg"><g clip-path="url(#clip0_3563_7195)"><path d="M4.53003 2.72996C5.17161 1.83216 5.97542 1.06226 6.90003 0.459961C5.61221 0.881038 4.42441 1.56172 3.41003 2.45996C3.55244 2.54705 3.70768 2.61117 3.87003 2.64996C4.08778 2.69276 4.30837 2.7195 4.53003 2.72996Z" fill="#8C9099"></path><path d="M5.80005 2.78C7.54807 2.70392 9.28708 2.48655 11 2.13C12.9719 1.73021 15.0197 1.96475 16.85 2.8C15.0844 1.09431 12.7531 0.0976949 10.3 0C10.2672 0.0547884 10.2237 0.102469 10.1722 0.140246C10.1207 0.178023 10.0622 0.205138 10 0.22C8.36595 0.611093 6.89647 1.50678 5.80005 2.78Z" fill="#8C9099"></path><path d="M18.85 13.8001C18.369 13.0798 17.7825 12.4359 17.11 11.8901C14.9212 10.11 12.4321 8.73513 9.76 7.83005C8.01574 7.20818 6.1964 6.82144 4.35 6.68005C4.35 6.80005 4.28 6.93005 4.25 7.06005C5.30422 7.53753 6.18707 8.32617 6.78 9.32005C11.19 16.0301 14.63 17.1601 16.28 17.2301H16.77C17.7108 16.3348 18.4683 15.2649 19 14.0801L18.85 13.8001Z" fill="#414952"></path><path d="M11.2899 3.63004C9.31767 4.05524 7.30743 4.27971 5.28995 4.30004L5.06995 4.71004C6.88439 4.90456 8.66986 5.31065 10.3899 5.92004C13.2973 6.90807 16.006 8.40465 18.3899 10.34C18.871 10.751 19.319 11.199 19.7299 11.68C19.8388 11.1261 19.9024 10.5643 19.9199 10C19.9195 8.624 19.637 7.26266 19.0899 6.00004C16.9999 4.44004 13.6499 3.18004 11.2899 3.63004Z" fill="#414952"></path><path d="M5.08994 10.44C4.78784 9.94969 4.398 9.51917 3.93994 9.17004V9.81004C3.86994 13.69 5.30994 17.47 7.50994 19.23L8.39994 19.87C10.4479 20.2108 12.5512 19.8848 14.3999 18.94C12.1299 18.24 8.84994 16.16 5.08994 10.44Z" fill="#8C9099"></path><path d="M2.34002 3.5C1.99238 3.90746 1.67804 4.34219 1.40002 4.8C2.00812 4.69648 2.62325 4.63964 3.24002 4.63H3.48002C3.56002 4.47 3.63002 4.3 3.71002 4.14C3.29037 4.05441 2.89026 3.89165 2.53002 3.66L2.34002 3.5Z" fill="#414952"></path><path d="M1.88999 9.76996V9.57996C1.75848 9.75142 1.64458 9.93568 1.54999 10.13C1.11323 11.0248 0.877717 12.0044 0.859985 13V14.22C1.53951 15.7013 2.5691 16.9951 3.85999 17.99C2.49547 15.4695 1.81619 12.6351 1.88999 9.76996Z" fill="#8C9099"></path><path d="M2 7H2.19L2.25 6.75C1.71665 6.78348 1.18764 6.86718 0.67 7L0.34 7.1C0.178232 7.6525 0.0644761 8.21793 0 8.79C0.453518 7.99111 1.15589 7.36248 2 7Z" fill="#414952"></path></g><defs><clipPath id="clip0_3563_7195"><rect width="19.92" height="20" fill="white"></rect></clipPath></defs></svg>
